<svg xmlns="http://www.w3.org/2000/svg" xmlns:xlink="http://www.w3.org/1999/xlink" viewBox="0 0 451.02 63.32"><defs><style>.cls-1{fill:#bad2db;}.cls-2{fill:#97a9b3;}.cls-3{fill:url(#未命名的渐变_12);}.cls-4{fill:#019cfa;}.cls-5{fill:#485158;}</style><linearGradient id="未命名的渐变_12" x1="30.94" y1="29.19" x2="58.18" y2="1.96" gradientUnits="userSpaceOnUse"><stop offset="0" stop-color="#1f6cbf"/><stop offset="0.07" stop-color="#1c71c5"/><stop offset="0.44" stop-color="#0d89e2"/><stop offset="0.76" stop-color="#0497f4"/><stop offset="1" stop-color="#019cfa"/></linearGradient></defs><title>资源 1</title><g id="图层_2" data-name="图层 2"><g id="图层_1-2" data-name="图层 1"><path class="cls-1" d="M37.91,60.85A7.59,7.59,0,1,0,49.12,50.6L38,38.47,27.74,49.73Z"/><path class="cls-2" d="M2,50.6a7.59,7.59,0,0,0,.48,10.73h0a7.59,7.59,0,0,0,10.73-.48L23.38,49.73,13.08,38.47Z"/><path class="cls-2" d="M81.09,50.6,54,21,43.72,32.25l26.16,28.6A7.59,7.59,0,1,0,81.09,50.6Z"/><path class="cls-3" d="M56.93,2h0a7.6,7.6,0,0,0-10.74.48L25.56,25c10,11,16,5,16,5l10.3-11.26,5.56-6.09A7.59,7.59,0,0,0,56.93,2Z"/><path class="cls-4" d="M25.56,25,15.33,13.85A7.6,7.6,0,1,0,4.12,24.11l5.45,6,5.69,6.22,10.3,11.26L35.85,36.29l5.69-6.22S35.57,36,25.56,25Z"/><path class="cls-4" d="M176,36l-6.66-17.47a57.83,57.83,0,0,1-1.86-5.7,49.86,49.86,0,0,1-1.86,5.76L158.82,36Zm0,0H158.82l-1.8,5h0L152.4,53.44a2.33,2.33,0,0,1-2.34,1.68,4.16,4.16,0,0,1-1.2-.18,2.66,2.66,0,0,1-2.1-2.46,3,3,0,0,1,.18-1l16.32-41a4.07,4.07,0,0,1,4.14-2.82,4.17,4.17,0,0,1,4.26,2.82L188,51.58a2.12,2.12,0,0,1,.24,1,2.6,2.6,0,0,1-2.16,2.4,3.4,3.4,0,0,1-1.08.18,2.5,2.5,0,0,1-2.46-1.68l-4.74-12.42"/><path class="cls-5" d="M223.44,8.67a2.36,2.36,0,0,1,2-1.08,3.8,3.8,0,0,1,1.92.6,3.07,3.07,0,0,1,1.38,2.46A2,2,0,0,1,228.3,12L215,30.15,230,50.74a2.11,2.11,0,0,1,.54,1.38,3.05,3.05,0,0,1-1.38,2.4,3.8,3.8,0,0,1-1.92.6,2.63,2.63,0,0,1-2.1-1L211.32,34.36,197.4,54.1a2.34,2.34,0,0,1-2,1,3.55,3.55,0,0,1-2-.66,2.86,2.86,0,0,1-1.32-2.28,2.75,2.75,0,0,1,.48-1.44l15-20.53L193.92,12a2.73,2.73,0,0,1-.48-1.38,3,3,0,0,1,1.32-2.34,3.53,3.53,0,0,1,1.92-.66,2.17,2.17,0,0,1,1.92,1l12.78,17.46Z"/><path class="cls-5" d="M300.24,28.29c9.36,2,14.46,5.17,14.46,13.87,0,7.74-5.94,13.56-16.68,13.56-13.68,0-16.5-7.08-17.94-11.94A4.13,4.13,0,0,1,280,43a2.68,2.68,0,0,1,2.28-2.52,5.91,5.91,0,0,1,1-.12,2.58,2.58,0,0,1,2.64,1.8c1.08,4,3.06,8.52,11.82,8.52,6.84,0,11.1-3.3,11.1-8.46,0-4.92-2.7-7.08-9.78-8.53l-4.8-1c-9-1.87-13.08-5.29-13.08-13.15,0-6.3,4.68-12.42,16-12.42,10.8,0,14.52,5.76,15.84,10.08a2.41,2.41,0,0,1,.18.9,2.56,2.56,0,0,1-2.22,2.4,5.28,5.28,0,0,1-1,.12,2.67,2.67,0,0,1-2.64-1.74c-1-3.42-3.48-6.78-10.14-6.78-7,0-10.14,3.48-10.14,7.44,0,4.32,2.1,6.54,8.82,7.86Z"/><path class="cls-5" d="M339.9,28.29c9.36,2,14.46,5.17,14.46,13.87,0,7.74-5.94,13.56-16.68,13.56-13.68,0-16.5-7.08-17.94-11.94a4.13,4.13,0,0,1-.12-.78,2.68,2.68,0,0,1,2.28-2.52,5.91,5.91,0,0,1,1-.12,2.58,2.58,0,0,1,2.64,1.8c1.08,4,3.06,8.52,11.82,8.52,6.84,0,11.1-3.3,11.1-8.46,0-4.92-2.7-7.08-9.78-8.53l-4.8-1c-9-1.87-13.08-5.29-13.08-13.15,0-6.3,4.68-12.42,16-12.42,10.8,0,14.52,5.76,15.84,10.08a2.41,2.41,0,0,1,.18.9,2.56,2.56,0,0,1-2.22,2.4,5.28,5.28,0,0,1-1,.12,2.67,2.67,0,0,1-2.64-1.74c-1-3.42-3.48-6.78-10.14-6.78-7,0-10.14,3.48-10.14,7.44,0,4.32,2.1,6.54,8.82,7.86Z"/><path class="cls-5" d="M361.8,10.11c0-1.68,1.2-2.46,2.82-2.46s2.94.78,2.94,2.46V52.66c0,1.62-1.26,2.46-2.94,2.46s-2.82-.84-2.82-2.46Z"/><path class="cls-5" d="M395.16,28.29c9.36,2,14.46,5.17,14.46,13.87,0,7.74-5.94,13.56-16.68,13.56-13.68,0-16.5-7.08-17.94-11.94a4.13,4.13,0,0,1-.12-.78,2.68,2.68,0,0,1,2.28-2.52,5.91,5.91,0,0,1,1-.12,2.58,2.58,0,0,1,2.64,1.8c1.08,4,3.06,8.52,11.82,8.52,6.84,0,11.1-3.3,11.1-8.46,0-4.92-2.7-7.08-9.78-8.53l-4.8-1c-9-1.87-13.08-5.29-13.08-13.15,0-6.3,4.68-12.42,16-12.42,10.8,0,14.52,5.76,15.84,10.08a2.41,2.41,0,0,1,.18.9,2.56,2.56,0,0,1-2.22,2.4,5.28,5.28,0,0,1-1,.12,2.67,2.67,0,0,1-2.64-1.74c-1-3.42-3.48-6.78-10.14-6.78-7,0-10.14,3.48-10.14,7.44,0,4.32,2.1,6.54,8.82,7.86Z"/><path class="cls-5" d="M415.74,13.29a2.37,2.37,0,0,1-2.35-2.58A2.43,2.43,0,0,1,415.68,8h33.06a2.43,2.43,0,0,1,2.28,2.7,2.39,2.39,0,0,1-2.28,2.58H435.12V52.66c0,1.62-1.26,2.46-2.88,2.46s-2.88-.84-2.88-2.46V13.29Z"/><path class="cls-5" d="M124.05,52.36c-.84,2-1.92,2.76-3.84,2.76s-3-.72-3.84-2.82l-9.06-22.74c-1.74-4.32-4.62-13-5.76-16.74.18,3.9.9,14.76.9,23.22V52.72c0,1.62-1.14,2.4-2.82,2.4s-2.76-.78-2.76-2.4V11.2c0-2.16,1.56-3.54,3.84-3.54,2.64,0,3.9,1,4.8,3.18l11,27.72a90,90,0,0,1,3.72,11.16,95.66,95.66,0,0,1,3.78-11.28L134.91,11c1-2.4,2.34-3.3,5-3.3a3.47,3.47,0,0,1,3.78,3.54V52.72c0,1.62-1.2,2.4-2.76,2.4s-2.82-.78-2.82-2.4V36.1c0-8.52.72-19.26,1-23.34-1.14,3.84-4.08,12.42-5.7,16.5Z"/><path class="cls-4" d="M275.58,51.58,259.26,10.47A4.17,4.17,0,0,0,255,7.65a4.07,4.07,0,0,0-4.14,2.82l-16.32,41a3,3,0,0,0-.18,1,2.66,2.66,0,0,0,2.1,2.46,4.16,4.16,0,0,0,1.2.18A2.33,2.33,0,0,0,240,53.44l4.62-12.36,1.8-5,6.78-17.41a49.86,49.86,0,0,0,1.86-5.76,57.83,57.83,0,0,0,1.86,5.7L263.58,36l1.8,5,4.74,12.42a2.5,2.5,0,0,0,2.46,1.68,3.4,3.4,0,0,0,1.08-.18,2.6,2.6,0,0,0,2.16-2.4A2.12,2.12,0,0,0,275.58,51.58Z"/></g></g></svg>