<svg xmlns="http://www.w3.org/2000/svg" xmlns:xlink="http://www.w3.org/1999/xlink" viewBox="0 0 445.74 62.13"><defs><style>.cls-1{fill:#feffff;}.cls-2{fill:url(#未命名的渐变_26);}.cls-3{fill:#019cfa;}.cls-4{fill:#fff;}</style><linearGradient id="未命名的渐变_26" x1="29.73" y1="29.27" x2="56.45" y2="2.54" gradientUnits="userSpaceOnUse"><stop offset="0" stop-color="#b7ddf0"/><stop offset="0.03" stop-color="#c2e2f2"/><stop offset="0.13" stop-color="#d8edf7"/><stop offset="0.23" stop-color="#e9f5fb"/><stop offset="0.36" stop-color="#f5fbfd"/><stop offset="0.54" stop-color="#fcfeff"/><stop offset="1" stop-color="#feffff"/></linearGradient></defs><title>资源 2</title><g id="图层_2" data-name="图层 2"><g id="图层_1-2" data-name="图层 1"><path class="cls-1" d="M37.2,59.7a7.45,7.45,0,0,0,11-10.06L37.31,37.74l-10.1,11Z"/><path class="cls-1" d="M2,49.64a7.47,7.47,0,0,0,.47,10.53h0A7.45,7.45,0,0,0,13,59.7l10-10.91-10.1-11Z"/><path class="cls-1" d="M79.56,49.64,53,20.6l-10.1,11L68.56,59.7a7.45,7.45,0,1,0,11-10.06Z"/><path class="cls-2" d="M55.85,2h0a7.47,7.47,0,0,0-10.53.47L25.07,24.56C34.9,35.33,40.76,29.5,40.76,29.5l10.1-11,5.46-6A7.45,7.45,0,0,0,55.85,2Z"/><path class="cls-1" d="M25.07,24.56l-10-11A7.45,7.45,0,1,0,4,23.65L9.39,29.5,15,35.6l10.1,11,10.11-11,5.58-6.1S34.9,35.33,25.07,24.56Z"/><path class="cls-3" d="M175.9,36.86l-6.53-17.14a55.59,55.59,0,0,1-1.83-5.59,49.91,49.91,0,0,1-1.82,5.65l-6.65,17.08Zm0,0H159.07L157.3,41.8h0l-4.53,12.13a2.3,2.3,0,0,1-2.3,1.65,4,4,0,0,1-1.18-.18A2.62,2.62,0,0,1,147.23,53a2.89,2.89,0,0,1,.18-1l16-40.21A4,4,0,0,1,167.48,9a4.07,4.07,0,0,1,4.18,2.77l16,40.32a2.18,2.18,0,0,1,.23,1,2.56,2.56,0,0,1-2.12,2.36,3.23,3.23,0,0,1-1.06.18A2.44,2.44,0,0,1,182.32,54L177.67,41.8"/><path class="cls-4" d="M222.47,10a2.32,2.32,0,0,1,2-1.06,3.74,3.74,0,0,1,1.88.59A3,3,0,0,1,227.71,12a1.93,1.93,0,0,1-.48,1.3L214.17,31.09l14.77,20.19a2.08,2.08,0,0,1,.53,1.35A3,3,0,0,1,228.12,55a3.78,3.78,0,0,1-1.89.59,2.61,2.61,0,0,1-2.06-1l-13.6-19.37L196.92,54.58a2.33,2.33,0,0,1-1.95,1,3.52,3.52,0,0,1-1.94-.65,2.81,2.81,0,0,1-1.29-2.24,2.63,2.63,0,0,1,.47-1.41l14.71-20.13L193.5,13.25a2.71,2.71,0,0,1-.47-1.36,2.9,2.9,0,0,1,1.3-2.29A3.44,3.44,0,0,1,196.21,9a2.14,2.14,0,0,1,1.88,1l12.54,17.13Z"/><path class="cls-4" d="M297.81,29.26C307,31.2,312,34.32,312,42.86c0,7.59-5.83,13.31-16.37,13.31-13.42,0-16.18-7-17.6-11.72a3.92,3.92,0,0,1-.12-.77,2.65,2.65,0,0,1,2.24-2.47,5.8,5.8,0,0,1,1-.12,2.52,2.52,0,0,1,2.59,1.77c1.06,3.94,3,8.36,11.6,8.36,6.71,0,10.89-3.24,10.89-8.3,0-4.83-2.65-7-9.59-8.36l-4.71-1c-8.83-1.83-12.84-5.18-12.84-12.89,0-6.19,4.59-12.19,15.66-12.19,10.6,0,14.25,5.65,15.54,9.89a2.31,2.31,0,0,1,.18.88,2.52,2.52,0,0,1-2.18,2.36,5.07,5.07,0,0,1-1,.12A2.63,2.63,0,0,1,304.7,20c-.94-3.36-3.41-6.65-9.95-6.65-6.83,0-9.95,3.41-9.95,7.3,0,4.23,2.06,6.41,8.66,7.71Z"/><path class="cls-4" d="M336.72,29.26c9.19,1.94,14.19,5.06,14.19,13.6,0,7.59-5.83,13.31-16.36,13.31-13.43,0-16.19-7-17.61-11.72a3.92,3.92,0,0,1-.12-.77,2.65,2.65,0,0,1,2.24-2.47,5.8,5.8,0,0,1,1-.12,2.52,2.52,0,0,1,2.59,1.77c1.06,3.94,3,8.36,11.6,8.36,6.71,0,10.89-3.24,10.89-8.3,0-4.83-2.65-7-9.59-8.36l-4.71-1C322,31.73,318,28.38,318,20.67c0-6.19,4.59-12.19,15.66-12.19,10.6,0,14.25,5.65,15.54,9.89a2.31,2.31,0,0,1,.18.88,2.52,2.52,0,0,1-2.18,2.36,5.07,5.07,0,0,1-1,.12A2.63,2.63,0,0,1,343.61,20c-.94-3.36-3.41-6.65-9.95-6.65-6.83,0-10,3.41-10,7.3,0,4.23,2.06,6.41,8.66,7.71Z"/><path class="cls-4" d="M358.21,11.42C358.21,9.77,359.39,9,361,9s2.89.76,2.89,2.41V53.16c0,1.59-1.24,2.42-2.89,2.42s-2.76-.83-2.76-2.42Z"/><path class="cls-4" d="M390.94,29.26c9.18,1.94,14.19,5.06,14.19,13.6,0,7.59-5.83,13.31-16.37,13.31-13.42,0-16.19-7-17.6-11.72a3.92,3.92,0,0,1-.12-.77,2.64,2.64,0,0,1,2.24-2.47,5.58,5.58,0,0,1,1-.12,2.53,2.53,0,0,1,2.59,1.77c1.06,3.94,3,8.36,11.6,8.36,6.71,0,10.89-3.24,10.89-8.3,0-4.83-2.65-7-9.6-8.36l-4.71-1c-8.83-1.83-12.83-5.18-12.83-12.89,0-6.19,4.59-12.19,15.66-12.19,10.59,0,14.24,5.65,15.54,9.89a2.31,2.31,0,0,1,.18.88,2.52,2.52,0,0,1-2.18,2.36,5.17,5.17,0,0,1-1,.12A2.63,2.63,0,0,1,397.83,20c-.95-3.36-3.42-6.65-9.95-6.65-6.83,0-9.95,3.41-9.95,7.3,0,4.23,2.06,6.41,8.65,7.71Z"/><path class="cls-4" d="M411.13,14.54a2.32,2.32,0,0,1-2.3-2.53,2.39,2.39,0,0,1,2.24-2.65h32.44A2.38,2.38,0,0,1,445.74,12a2.34,2.34,0,0,1-2.23,2.53H430.14V53.16c0,1.59-1.23,2.42-2.82,2.42s-2.83-.83-2.83-2.42V14.54Z"/><path class="cls-4" d="M125,52.87c-.82,2-1.88,2.7-3.77,2.7s-2.94-.7-3.76-2.76L108.53,30.5c-1.71-4.24-4.53-12.77-5.65-16.42.17,3.82.88,14.48.88,22.78V53.22c0,1.59-1.12,2.35-2.77,2.35s-2.7-.76-2.7-2.35V12.49c0-2.12,1.53-3.47,3.76-3.47,2.59,0,3.83.94,4.71,3.12l10.83,27.19a87.76,87.76,0,0,1,3.65,11A95.19,95.19,0,0,1,125,39.21l10.66-27C136.55,9.9,137.9,9,140.49,9a3.4,3.4,0,0,1,3.71,3.47V53.22c0,1.59-1.18,2.35-2.71,2.35s-2.77-.76-2.77-2.35V36.92c0-8.36.71-18.9.95-22.9-1.12,3.77-4,12.18-5.6,16.19Z"/><path class="cls-3" d="M273.62,52.1l-16-40.32A4.09,4.09,0,0,0,253.43,9a4,4,0,0,0-4.06,2.77L233.35,52a3.14,3.14,0,0,0-.17,1,2.61,2.61,0,0,0,2.06,2.41,4,4,0,0,0,1.17.18,2.28,2.28,0,0,0,2.3-1.65l4.53-12.13L245,36.86l6.65-17.08a48,48,0,0,0,1.83-5.65,55.64,55.64,0,0,0,1.82,5.59l6.54,17.14,1.76,4.94L268.26,54a2.46,2.46,0,0,0,2.42,1.65,3.32,3.32,0,0,0,1.06-.18,2.57,2.57,0,0,0,2.12-2.36A2.07,2.07,0,0,0,273.62,52.1Z"/></g></g></svg>